<?xml version="1.0" standalone="no"?>
<!DOCTYPE svg PUBLIC "-//W3C//DTD SVG 20010904//EN"
 "http://www.w3.org/TR/2001/REC-SVG-20010904/DTD/svg10.dtd">
<svg version="1.0" xmlns="http://www.w3.org/2000/svg"
 width="500.000000pt" height="500.000000pt" viewBox="0 0 500.000000 500.000000"
 preserveAspectRatio="xMidYMid meet">

<g transform="translate(0.000000,500.000000) scale(0.100000,-0.100000)"
fill="#000000" stroke="none">
<path d="M1454 3595 c-10 -25 4 -45 31 -45 l25 0 0 -205 0 -205 -30 0 c-25 0
-30 -4 -30 -25 0 -25 1 -25 85 -25 84 0 85 0 85 25 0 20 -5 25 -25 25 l-25 0
0 205 0 205 25 0 c21 0 25 5 25 30 l0 30 -80 0 c-62 0 -82 -3 -86 -15z"/>
<path d="M1734 3595 c-9 -23 3 -45 26 -45 19 0 20 -6 20 -205 l0 -205 -25 0
c-20 0 -25 -5 -25 -25 0 -24 2 -25 75 -25 73 0 75 1 75 25 0 18 -5 25 -20 25
-18 0 -20 7 -20 80 l0 80 53 0 52 -1 35 -76 c24 -54 31 -78 22 -81 -6 -2 -12
-15 -12 -28 0 -23 3 -24 65 -24 63 0 65 1 65 25 0 18 -5 25 -20 25 -16 0 -29
18 -55 76 -19 42 -35 80 -35 83 0 4 16 26 35 48 33 38 35 46 35 110 0 65 -2
70 -39 111 l-39 42 -131 0 c-108 0 -133 -3 -137 -15z m268 -62 c27 -25 25
-119 -4 -150 -18 -20 -31 -23 -90 -23 l-68 0 0 95 0 95 72 0 c52 0 76 -4 90
-17z"/>
<path d="M2214 3595 c-9 -23 3 -45 26 -45 19 0 20 -6 20 -205 l0 -205 -25 0
c-20 0 -25 -5 -25 -25 l0 -25 165 0 165 0 0 65 c0 63 -1 65 -25 65 -22 0 -25
-4 -25 -40 l0 -40 -85 0 -85 0 0 90 0 90 80 0 c78 0 80 1 80 25 0 23 -3 24
-77 27 l-78 3 -3 88 -3 87 86 0 85 0 0 -40 c0 -36 3 -40 25 -40 24 0 25 2 25
70 l0 70 -160 0 c-134 0 -162 -3 -166 -15z"/>
<path d="M2654 3595 c-9 -23 3 -45 26 -45 19 0 20 -6 20 -205 l0 -205 -25 0
c-20 0 -25 -5 -25 -25 0 -25 1 -25 80 -25 79 0 80 0 80 25 0 20 -5 25 -25 25
l-25 0 0 192 c0 105 3 188 8 184 4 -4 50 -100 102 -214 l96 -207 47 -3 47 -3
0 230 0 231 26 0 c22 0 25 4 22 28 -3 27 -4 27 -78 27 -73 0 -75 -1 -75 -25 0
-18 6 -26 23 -28 22 -3 22 -4 21 -195 0 -133 -3 -186 -10 -172 -6 11 -52 110
-102 220 l-92 200 -68 3 c-53 2 -69 0 -73 -13z"/>
<path d="M3220 3580 c0 -23 4 -30 20 -30 19 0 20 -7 20 -205 0 -198 -1 -205
-20 -205 -15 0 -20 -7 -20 -25 l0 -25 160 0 160 0 0 65 c0 63 -1 65 -25 65
-23 0 -25 -4 -25 -40 l0 -41 -82 3 -83 3 -3 88 -3 87 86 0 c84 0 85 0 85 25 0
24 -2 24 -82 27 l-83 3 -3 88 -3 87 86 0 85 0 0 -40 c0 -36 3 -40 25 -40 24 0
25 2 25 70 l0 70 -160 0 -160 0 0 -30z"/>
<path d="M942 2917 c-30 -31 -32 -37 -32 -108 0 -72 1 -76 33 -107 31 -30 38
-32 103 -32 89 0 104 -13 104 -92 0 -73 -16 -88 -97 -88 -49 0 -63 4 -81 23
-12 13 -22 35 -22 50 0 22 -5 27 -25 27 -23 0 -25 -4 -25 -43 0 -37 6 -48 38
-80 37 -36 39 -37 118 -37 79 0 80 0 117 38 36 37 37 40 37 113 0 72 -1 76
-33 107 -31 30 -38 32 -103 32 -88 0 -114 21 -114 92 0 62 20 78 97 78 69 0
93 -17 93 -68 0 -29 3 -32 30 -32 28 0 30 2 30 40 0 32 -7 48 -36 80 l-36 40
-82 0 c-80 0 -83 -1 -114 -33z"/>
<path d="M1280 2885 c0 -63 1 -65 25 -65 23 0 25 4 25 40 l0 40 50 0 50 0 0
-204 0 -205 -32 -3 c-28 -2 -33 -7 -33 -28 0 -25 1 -25 98 -28 l97 -3 0 31 c0
28 -3 30 -35 30 l-35 0 0 205 0 205 55 0 55 0 0 -40 c0 -36 3 -40 25 -40 24 0
25 2 25 65 l0 65 -185 0 -185 0 0 -65z"/>
<path d="M1710 2925 c0 -21 5 -25 30 -25 l30 0 0 -204 0 -205 -27 -3 c-22 -2
-28 -8 -28 -28 0 -24 2 -25 83 -28 l82 -3 0 31 c0 25 -4 30 -25 30 l-25 0 0
205 0 205 25 0 c20 0 25 5 25 25 0 25 -1 25 -85 25 -84 0 -85 0 -85 -25z"/>
<path d="M1950 2885 c0 -63 1 -65 25 -65 23 0 25 4 25 41 l0 40 53 -3 52 -3 3
-202 2 -203 -35 0 c-32 0 -35 -2 -35 -30 l0 -30 95 0 95 0 0 30 c0 28 -3 30
-35 30 l-35 0 2 203 3 202 53 3 52 3 0 -40 c0 -37 2 -41 25 -41 24 0 25 2 25
65 l0 65 -185 0 -185 0 0 -65z"/>
<path d="M2427 2912 l-37 -38 0 -179 0 -180 40 -42 39 -43 84 0 85 0 36 40
c29 32 36 48 36 80 0 36 -3 40 -25 40 -21 0 -25 -5 -25 -28 0 -49 -36 -72
-112 -72 -95 0 -98 7 -98 208 0 191 1 192 102 192 55 0 68 -4 86 -23 12 -13
22 -35 22 -50 0 -22 5 -27 25 -27 23 0 25 4 25 43 0 37 -6 48 -38 80 -38 37
-38 37 -123 37 l-85 0 -37 -38z"/>
<path d="M2810 2925 c0 -20 5 -25 25 -25 l25 0 0 -205 0 -205 -25 0 c-21 0
-25 -5 -25 -30 l0 -30 75 0 75 0 0 30 c0 23 -4 30 -20 30 -19 0 -20 7 -20 90
l0 90 105 0 105 0 0 -90 c0 -83 -1 -90 -20 -90 -16 0 -20 -7 -20 -30 l0 -30
75 0 75 0 0 30 c0 25 -4 30 -25 30 l-25 0 2 203 c3 201 3 202 26 205 16 3 22
10 22 28 0 23 -2 24 -75 24 -73 0 -75 -1 -75 -25 0 -18 5 -25 20 -25 19 0 20
-7 20 -90 l0 -90 -105 0 -105 0 0 90 c0 83 1 90 20 90 15 0 20 7 20 25 0 24
-2 25 -75 25 -73 0 -75 -1 -75 -25z"/>
<path d="M3360 2926 c0 -18 6 -25 23 -28 22 -3 22 -4 25 -205 l2 -203 -25 0
c-21 0 -25 -5 -25 -30 l0 -30 160 0 160 0 0 71 c0 67 -1 70 -22 67 -19 -2 -24
-10 -26 -40 l-3 -38 -80 0 -79 0 0 90 0 90 80 0 c79 0 80 0 80 25 0 25 -1 25
-80 25 l-80 0 0 90 0 90 80 0 80 0 0 -40 c0 -36 3 -40 25 -40 24 0 25 2 25 65
l0 65 -160 0 -160 0 0 -24z"/>
<path d="M3831 2915 c-29 -33 -31 -41 -31 -108 0 -69 2 -75 33 -105 31 -30 38
-32 103 -32 89 0 104 -13 104 -92 0 -73 -16 -88 -97 -88 -49 0 -63 4 -81 23
-12 13 -22 35 -22 50 0 22 -5 27 -25 27 -23 0 -25 -4 -25 -43 0 -37 6 -48 38
-80 37 -36 39 -37 118 -37 79 0 80 0 117 38 36 37 37 40 37 113 0 72 -1 76
-33 107 -31 30 -38 32 -103 32 -89 0 -104 13 -104 91 0 30 5 60 12 67 7 7 39
12 73 12 71 0 95 -17 95 -68 0 -29 3 -32 30 -32 29 0 30 2 30 43 0 37 -6 48
-38 80 -37 37 -39 37 -119 37 -80 0 -81 0 -112 -35z"/>
<path d="M1905 2150 c-4 -6 106 -11 312 -12 l317 -3 -89 -97 c-48 -54 -92 -98
-97 -98 -5 0 -22 -16 -39 -35 -21 -23 -40 -35 -58 -35 -35 0 -49 -10 -69 -51
-17 -33 -19 -34 -94 -40 -59 -5 -89 -13 -130 -36 -62 -35 -109 -95 -110 -143
-2 -79 109 -107 222 -54 66 30 96 56 121 107 11 20 27 37 35 37 14 0 16 -11
12 -67 -5 -80 -25 -126 -83 -191 -49 -55 -75 -101 -75 -135 0 -66 87 -98 149
-55 58 39 70 65 81 168 5 52 10 140 10 196 0 143 -3 140 283 292 128 68 236
128 242 133 5 6 5 13 -2 20 -7 7 -56 -4 -169 -40 -87 -28 -160 -49 -162 -47
-2 2 27 43 64 90 l68 86 253 0 c162 0 253 4 253 10 0 14 -1236 14 -1245 0z
m607 -149 l-97 -130 -24 24 -24 23 26 31 c107 128 163 181 189 181 26 0 23 -5
-70 -129z m233 -4 c-91 -52 -335 -178 -335 -173 0 3 16 28 35 55 35 48 37 49
173 94 156 51 184 56 127 24z m-366 -118 l22 -30 -41 -55 c-25 -33 -55 -60
-77 -69 -43 -18 -68 -13 -58 13 3 9 9 38 12 64 5 41 9 47 34 52 15 3 36 17 45
31 21 33 35 32 63 -6z m-178 -149 c-37 -120 -125 -190 -239 -190 -74 0 -92 12
-92 61 0 33 7 46 43 83 50 50 110 73 205 78 34 3 62 3 62 0 0 -3 -20 -44 -25
-50 -1 -1 -15 4 -30 12 -49 25 -139 -6 -189 -64 -30 -36 -32 -52 -10 -74 22
-23 71 -20 131 8 60 28 97 74 133 165 32 79 38 61 11 -29z m-63 -31 c2 -9 -9
-31 -25 -49 -48 -58 -154 -90 -183 -55 -19 22 16 74 70 102 53 28 133 29 138
2z m153 -280 c-11 -101 -29 -142 -71 -164 -79 -41 -148 14 -109 88 18 32 119
149 119 137 0 -17 -30 -72 -57 -104 -17 -20 -23 -38 -21 -60 4 -40 31 -46 65
-14 48 43 53 72 46 241 -6 147 -5 155 13 159 17 3 19 -5 22 -96 1 -55 -2 -139
-7 -187z m-31 29 c0 -21 -5 -28 -19 -28 -16 0 -17 4 -8 40 12 43 27 36 27 -12z
m-7 -51 c12 -32 -44 -107 -80 -107 -17 0 -16 34 2 70 23 44 67 65 78 37z"/>
<path d="M2270 1805 c-15 -18 -6 -45 13 -45 20 0 40 27 33 45 -7 19 -30 19
-46 0z m40 -10 c0 -16 -27 -32 -37 -22 -3 4 -3 13 0 22 8 20 37 20 37 0z"/>
<path d="M1123 974 c-17 -13 -17 -15 6 -34 23 -20 23 -20 2 -20 -12 0 -19 -4
-16 -10 9 -14 52 -12 57 3 7 18 -2 37 -18 37 -8 0 -14 5 -14 11 0 6 7 9 15 5
8 -3 15 -1 15 3 0 17 -28 20 -47 5z"/>
<path d="M1318 984 c-11 -10 -10 -84 1 -84 5 0 11 9 14 20 3 11 10 20 16 20 6
0 11 -9 11 -20 0 -11 5 -20 10 -20 6 0 10 21 10 46 0 27 -4 43 -10 39 -5 -3
-10 -13 -10 -21 0 -22 -28 -16 -32 7 -2 11 -6 17 -10 13z"/>
<path d="M1737 983 c-11 -10 -8 -83 3 -83 6 0 10 7 10 15 0 8 9 15 19 15 25 0
34 26 15 45 -16 16 -36 19 -47 8z m33 -29 c0 -8 -4 -12 -10 -9 -5 3 -10 10
-10 16 0 5 5 9 10 9 6 0 10 -7 10 -16z"/>
<path d="M2072 983 c2 -5 10 -25 18 -45 16 -43 25 -48 33 -15 3 12 8 33 12 47
l7 25 -20 -24 -20 -24 -6 21 c-4 12 -12 22 -18 22 -5 0 -8 -3 -6 -7z"/>
<path d="M2488 984 c-13 -13 -9 -61 7 -74 34 -28 79 22 60 66 -7 16 -9 13 -14
-16 -9 -50 -39 -54 -43 -5 -2 20 -6 33 -10 29z"/>
<path d="M2697 983 c-10 -10 -8 -83 2 -83 5 0 12 8 16 18 6 16 7 16 16 0 16
-28 26 -21 25 17 -1 42 -37 71 -59 48z m41 -24 c-2 -6 -8 -10 -13 -10 -5 0
-11 4 -13 10 -2 6 4 11 13 11 9 0 15 -5 13 -11z"/>
<path d="M3063 983 c-19 -7 -16 -40 5 -52 16 -10 16 -10 0 -11 -10 0 -18 -5
-18 -11 0 -6 12 -9 27 -7 35 4 45 37 14 45 -12 3 -21 10 -21 15 0 6 7 8 15 4
8 -3 15 -1 15 3 0 11 -22 19 -37 14z"/>
<path d="M3240 980 c0 -5 5 -10 10 -10 6 0 10 -16 10 -35 0 -19 5 -35 10 -35
6 0 10 16 10 35 0 25 4 35 16 35 8 0 12 5 9 10 -3 6 -19 10 -36 10 -16 0 -29
-4 -29 -10z"/>
<path d="M3445 970 c4 -14 9 -35 12 -47 3 -13 9 -23 13 -23 4 0 10 10 13 23 3
12 8 33 12 47 6 24 6 24 -9 6 -16 -20 -16 -20 -32 0 -15 18 -15 18 -9 -6z"/>
<path d="M3640 945 c0 -43 1 -45 30 -45 17 0 30 5 30 10 0 6 -9 10 -20 10 -16
0 -20 7 -20 35 0 19 -4 35 -10 35 -5 0 -10 -20 -10 -45z"/>
<path d="M3837 983 c-4 -3 -7 -24 -7 -45 0 -36 2 -38 30 -38 17 0 30 5 30 10
0 6 -10 10 -22 10 -22 1 -23 1 -4 15 17 13 18 15 3 15 -9 0 -17 5 -17 10 0 6
9 10 21 10 11 0 17 5 14 10 -7 11 -38 13 -48 3z"/>
<path d="M1527 973 c-11 -11 -8 -48 5 -61 32 -32 87 18 58 53 -13 15 -51 20
-63 8z m48 -29 c0 -10 -8 -20 -17 -22 -18 -3 -26 27 -11 42 12 11 28 0 28 -20z"/>
<path d="M2277 973 c-11 -11 -8 -48 5 -61 32 -32 87 18 58 53 -13 15 -51 20
-63 8z m48 -29 c0 -10 -8 -20 -17 -22 -18 -3 -26 27 -11 42 12 11 28 0 28 -20z"/>
</g>
</svg>
